<?xml version="1.0" encoding="UTF-8"?><svg id="a" xmlns="http://www.w3.org/2000/svg" viewBox="0 0 725.39 722.27"><defs><style>.b{fill:#ddd;}</style></defs><path class="b" d="M114.12,605.63c-14.59-15.39-28.44-29.22-41.27-43.95-17.52-20.11-17.56-23.38-2.27-44.53,11.42-15.79,23.54-31.08,34.82-45.89-2.15-19.01-12.37-27.17-30.05-26.61-27.58,.88-45.76-17.8-65.35-32.63-5.47-4.14-9.81-13.43-9.91-20.41-.42-31.95,.56-63.93,1.64-95.88,.49-14.61,9.07-22.9,23.54-24.51,20.14-2.24,40.31-4.12,62.87-6.4,5.06-10.84,10.73-23.5,16.86-35.92,3.86-7.83-.16-13.16-4.37-19.08-12.23-17.17-24.13-34.58-36.16-51.9-6.68-9.62-6.95-18.18,2.51-26.78,23.68-21.54,46.48-44.05,70.51-65.19,11.6-10.21,15.65-9.51,28.4,1.38,15.95,13.63,31.17,28.1,46.19,41.74,19.45-7.9,37.4-15.18,57.19-23.22,1.54-18.72,2.98-38.85,4.91-58.93,2.34-24.27,4.69-26.45,28.67-26.68,26.55-.26,53.11-.32,79.66-.16,28.27,.17,46.3,19.98,66.07,35.85,3.27,2.63,3.24,9.87,3.93,15.09,1.95,14.7,2.87,29.56,5.34,44.17,2.25,13.3,10.9,16.05,21.5,7.46,12.74-10.33,25.16-21.06,37.89-31.41,11.77-9.57,24.03-10.82,36.21-.77,28.91,23.86,57.74,47.82,86.53,71.83,2.37,1.98,4.25,4.58,6.24,6.99,24.26,29.38,24.42,34.35,1.07,63.56-6.83,8.54-14.29,16.58-21.32,24.96-13.27,15.81-8.49,28.65,12.2,32.79,9.19,1.84,18.37,4.08,27.67,5,24.77,2.45,36.41,23.3,51.3,38.24,6.8,6.82,7.12,21.55,7.67,32.82,1.03,21.04,.57,42.2-.28,63.27-.34,8.41-2.78,16.89-5.32,25-2.53,8.08-8.23,12.3-17.49,12.64-20.26,.75-40.48,2.49-61.22,3.86-7.97,15.96-15.91,31.86-24.95,49.95,11.67,14.98,24.82,31.26,37.29,48.04,15.75,21.19,15.43,23.36-.31,45.03-17.22,23.71-38.05,43.35-63.36,58.36-12.47,7.4-22.99,6.75-34.11-2.89-15.86-13.74-32.53-26.53-47.96-39.01-17.31,7.4-32.99,14.1-50.09,21.41-1.55,18.72-2.74,38.83-4.99,58.83-3.09,27.52-5.83,31.34-33.32,31.07-33.5-.33-67.92,.27-100.12-7.29-20.15-4.73-40.67-20.77-45.47-45.58-4.12-21.26-6.1-42.93-9.27-66.27-19.78,15.01-38.7,29.7-57.98,43.89-22.3,16.41-23.01,16.58-44.32-.48-15.85-12.68-30.84-26.45-47.4-40.9ZM485.87,115.97c-9.9,8.03-20.2,6.12-30.66,1.3-8.5-3.92-16.69-9.27-25.62-11.33-16.94-3.91-21.92-14.78-22.91-30.47-1.17-18.6-3.78-37.11-5.86-56.6-37.19-11.3-73.48-3.73-112.11-3.89-1.61,24.15-3.83,46.56-4.29,69-.23,11.52-4.08,16.51-15.4,19.08-12.79,2.9-25.53,7.41-37.28,13.26-20.94,10.41-20.81,11.07-38.32-4.96-13.71-12.56-27.32-25.23-42.67-39.41-22.91,20.72-44.2,40.13-65.68,59.33-9.73,8.7-11.5,17.6-3.27,28.56,11.73,15.62,22.68,31.82,34.22,47.58,4.84,6.61,8.41,12.8,4.32,21.41-7.97,16.79-15.34,33.87-23.39,51.81-8.84,0-17.4-.42-25.91,.1-14.01,.85-28,2.2-41.97,3.57-8.03,.79-11.97,5.33-13.57,13.5-6.4,32.58-3.28,65.04-1.84,99.39,23.36,2.73,44.91,6.23,66.58,7.39,12.25,.65,18.73,5.73,22.48,16.42,3.88,11.05,6.34,23.02,12.32,32.82,8.66,14.19,4.67,24.22-4.95,35.46-13.08,15.28-24.95,31.6-37.84,48.11,22.59,29.87,45.7,55.73,74.92,77.74,18.42-14.01,36.45-26.44,52.92-40.67,11.6-10.02,21.17-13.8,34.9-3.61,7.9,5.86,18.25,8.91,27.94,11.74,13.64,3.98,17.67,12.14,17.67,26.05,0,20.08,2.8,40.16,4.46,60.87,34,7.82,65.67,10.74,97.83,9.24,11.09-.52,17.45-5.45,17.89-17.09,.69-17.92,2.98-35.9,1.97-53.71-.72-12.78,3.47-18.46,15.07-22.09,12.58-3.94,25.98-7.72,36.51-15.14,15.15-10.67,20.6-7.11,32.38,3.3,15.68,13.87,32.48,26.48,49.11,39.88,34.5-16.73,58.76-41.86,78.75-74.14-15.75-19.51-30.64-37.53-45.05-55.94-10.04-12.83-9.54-15.75-.44-28.85,6.65-9.58,15.05-18.92,18.26-29.69,4.23-14.15,12.11-18.19,25.42-18.71,18.59-.73,37.12-2.87,56.26-4.46,7.8-37.6,5.89-73.89,3.23-112.82-23.52-2.67-45.08-5.56-66.72-7.45-17.34-1.51-21-4-26.02-20.95-2.44-8.23-4.52-16.73-8.27-24.37-7.68-15.64-4.28-27.75,7.64-40.04,12.84-13.24,23.82-28.3,34.75-41.52-14.12-28-45.48-60.76-68.17-73.8-8.16-4.69-14.71-3.68-21.35,1.95-11.92,10.11-23.81,20.26-38.27,32.85Zm136.9,330.66c3.52-2.77,7.04-5.54,10.48-8.25q-13.9-20.01-36.61-11.95c8.7,7.43,15.94,13.61,26.13,20.2Zm-26.23-.06c-8.31,.76-11.35,7.49-7.76,12.6,5.29,7.51,13.69,12.83,22.54,20.66,3.29-7.87,5.21-12.46,7.1-16.96-7.1-5.35-13.18-9.93-21.88-16.3Zm-401.41,175.16c8.65,8.82,15.41,7.64,21.68-3.82-7.65-5.78-14.19-11.21-21.29-15.74-1.92-1.22-7.31-.67-8.07,.73-1.47,2.69-1.7,6.86-.72,9.86,.87,2.65,4.07,4.53,8.4,8.97Zm401.66-16.29c6.39,3.93,11.35,12.66,24.1,5.41-8.56-8.79-15.9-16.34-22.78-23.41-9.63,5.74-10.25,10.48-1.32,18Zm-414.19,23.06c-6.14-4.68-10.88-16.37-21.27-5.1q13.21,15.62,29.4,17.53c-2.25-3.95-3.95-6.93-8.13-12.43ZM615.6,227.07c-6.66-6.69-13.02-13.74-20.26-19.73-1.2-.99-6.23,2.67-14.14,6.33,13.48,6.56,22.65,11.02,34.4,13.39Zm72.85,149.57c6.45,6.62,12.89,13.23,21.95,22.53-1.28-19.32-9.43-29.03-21.3-29.85-.28-.02-.74,2.73-.65,7.32Zm7.11,42.29c3.55,1.74,7.1,3.49,14.89,7.32-6.56-15.4-13.63-22.82-25.32-27.22-4.18,10.43,2.98,13.74,10.43,19.9Zm-46.82,12.37c5.53,1.77,11.07,3.54,16.6,5.31,.69-1.58,1.38-3.17,2.06-4.75-5.71-4.61-11.19-9.58-17.31-13.56-1.33-.87-4.97,1.82-7.54,2.86,1.3,2.61,2.6,5.21,6.19,10.14Zm-27.4-222.44c5.5,2.9,10.3,3.98,11.92-7-11.51,1.35-15.29-14.76-34.52-11.66,9.06,7.6,14.51,12.16,22.6,18.66Zm-.98-31.31c7.19,5.98,14.37,11.96,21.56,17.94-.06-15.28-8.53-22.1-20.04-25.85-.44-.14-2.08,3.4-1.52,7.9Zm76.66,135.63c-2.29-1.63-4.57-3.25-8.75-6.22-.43,16.46,10.26,19.26,21.63,21.66-3.61-4.45-7.23-8.9-12.88-15.44Zm-275.9,288.55c3.56,10.63,10.15,17.29,24.73,19.22-5.98-11.79-10.02-20.56-24.73-19.22Zm163.12,23.22l12.61,4.69c.63-1.43,1.27-2.85,1.9-4.28-8.74-5.21-12.86-17.89-26.2-15.64-1.76,1.92-3.52,3.85-5.29,5.77,4.78,2.54,9.55,5.09,16.98,9.46Zm-132.41-34.26c-1.75,1.04-5.1,2.8-5,3.02,4.19,9.39,9.69,17.38,23.78,15.64-5.28-5.89-10.57-11.77-18.77-18.67Zm248.86-235.03c3.41,1.82,6.82,3.64,10.24,5.46-2.72-11.55-8.33-18.72-23.69-20.24,5.54,6.29,8.44,9.58,13.46,14.78ZM421.04,66.2c6.56,4.53,12.89,11.63,23.78,.11-8.69-3.58-15.44-6.41-22.3-8.9-.17-.06-1.7,3.67-1.48,8.78Zm-.78,620.73c5.28,2.8,8.79,10.59,18.92,6.22-7.8-8.92-14.64-15.64-28.48-17.73,3.75,4.92,5.51,7.24,9.55,11.51Zm.22-27.59c5.62,3.92,10.1,10.54,22.39,9.09-6.82-11.58-13.86-16.06-24.39-15.31-.11,0-.04,2.37,1.99,6.22Zm200.85-101.31c3.64,11.37,12.65,16.6,26.76,24.46-6.94-15.41-14.55-22.41-26.76-24.46Zm-141.29,40.78c2.85,1.52,5.69,3.04,8.54,4.56l3.26-4.44c-6.39-7.01-12.28-14.57-24.55-15.76,3.53,4.49,7.07,8.98,12.75,15.64Zm140.18-9.45c3.34,2.14,6.68,4.28,10.02,6.42,.94-1.19,1.88-2.37,2.82-3.56-5.8-5.37-11.6-10.74-17.41-16.1-1.1,.98-2.21,1.96-3.31,2.94,1.91,2.7,3.82,5.4,7.88,10.3Zm-249.18,106.44c3.71,8.9,8.66,15.3,25.04,8.6-10.14-4.78-16.24-7.66-25.04-8.6Zm-128.26-105.52c-3.73-.92-7.45-1.83-11.18-2.75l-1.31,3.14c4.01,2.85,8.02,5.7,12.03,8.55,.97-2.6,1.94-5.2,.47-8.94Zm182.68,39.29c-2.07,.78-4.15,1.57-6.22,2.35,4.3,2.86,8.61,5.72,12.91,8.58,1.05-1.46,2.1-2.93,3.15-4.39-2.65-1.61-5.3-3.22-9.84-6.54ZM74.36,426.7c3.36,1.25,6.72,2.5,11.1,4.14-.25-3.44,0-4.57-.41-4.93-3.26-2.79-6.64-5.44-9.98-8.13-.69,1.96-1.38,3.91-.71,8.92Zm-18.74-5.66c-2.89-2.29-5.78-4.59-9.44-7.49-.83,3.23-1.24,3.97-1.17,4.67,.61,5.92,5.71,8.2,10.61,2.82ZM596.44,248.14c1.69-.93,3.37-1.87,5.06-2.8-3.63-3.2-7.25-6.4-10.88-9.6-.97,1.2-1.94,2.41-2.91,3.61,1.99,2.73,3.97,5.45,8.73,8.78Zm-24.72,384.67c-2.92-1.52-5.84-3.04-8.76-4.56,1.07,6.05,4.17,9.19,7.71,11.7,1.47,1.04,3.89,.74,7.35,1.28-1.85-3.13-2.88-4.87-6.31-8.42Zm-232.18,66.01c4.12,1.8,8.24,3.6,12.36,5.41,.12-5.28-1.28-8.71-3.43-9.28-3.09-.82-6.73,.44-8.93,3.87Z"/><path class="b" d="M423.78,248.47c74.53,49.25,82.47,152.74,17.41,211.6-44.12,39.92-110.64,45.38-160.95,13.37-50.41-32.08-73.31-94.14-55.92-151.58,17.11-56.54,69.36-94.16,128.98-93.73,24.98,.18,47.81,6.54,70.48,20.34Zm-88.76,38.03c-5.91,3.81-12.12,7.22-17.67,11.49-47.37,36.44-59.47,103.46-28.15,153.55,7.41,11.85,16.98,19.44,30.75,23.33,45.58,12.86,96.41-3.73,125.81-42.02,29.69-38.68,32.64-90.97,8-132.18-6.39-10.69-14.88-17.41-26.64-21.35-30.52-10.21-59.99-7.84-92.09,7.16Zm-78.87,6.9c7.63,5.57,15.26,11.15,23.97,17.51,5.56-6.88,9.67-11.96,14.73-18.22-8.72-6.26-15.97-11.46-23.95-17.18-5.35,5.85-9.42,10.31-14.75,17.88Zm-15.87,77.33q16.4-1.44,17.49-19.39c-6.58-2.38-13.5-4.89-24.73-8.96,1.57,11.57,2.63,19.41,7.25,28.34Zm16.13-34.83c13.09,3.6,12.84-5.87,15.16-15.23-8.52-4.15-16.37-7.97-24.24-11.8q-8.11,17.93,9.08,27.04Zm31.76-74.1c-3.74,14.21,9.85,14.64,16.79,19.35,2.25,1.53,9.27-3.99,16.48-7.4-11.4-8.6-15.21-23.67-33.27-11.95Zm55.99-16.86c-9.21-2.22-17.57-1.33-26.38,6.57,5.75,6.25,10.37,11.26,15.23,16.53,8.22-3.81,14.1-6.54,21.24-9.85-3.32-4.8-5.46-7.89-10.09-13.26Zm23.83,7.87c8.8,6.13,17.61,3.92,26.76-.12-7.71-4.28-15.7-6.6-23.84-8.09-1.17-.22-3.07,3.5-2.92,8.21Zm-123.01,148.74c7.24-.11,12.61-3.39,9.85-10.9-3.05-8.33-10.06-6.79-17.7-2.96,1.66,4.22,3.24,8.21,7.85,13.85Zm6.75,21.86c1.95,2.08,3.9,4.16,5.95,6.35,.91-1.27,1.88-2.12,1.72-2.47-1.64-3.76-3.47-7.44-5.24-11.15-1.16,1.52-2.32,3.04-2.43,7.27Z"/></svg>