<?xml version="1.0" encoding="UTF-8"?><svg id="a" xmlns="http://www.w3.org/2000/svg" viewBox="0 0 724.33 775.3"><defs><style>.b{fill:#ddd;}</style></defs><path class="b" d="M500.03,5.74c32.97-6.93,63.97-8.03,95-.84,42.84,9.93,74.72,33.76,97.59,71.84,39.1,65.1,39.89,132.93,14.09,201.23-45.94,121.62-130.54,207.56-249.81,258.86-40.27,17.32-82.66,25.17-126.8,20.34-19.93-2.18-38.96,1.61-54.41,14.33-19.03,15.67-38.75,31.37-54.24,50.27-24.31,29.68-46.09,61.55-59.98,97.97-7.06,18.51-19.21,33.05-35.99,43.81-25.43,16.31-52.98,16.1-75.68-3.51-20.12-17.37-35.99-38.64-45.82-63.73-14.86-37.91,14.75-74.22,40.57-88.26,5.66-3.08,15.08,.77,19.19,1.13,18.62-14.46,34.93-28.32,52.44-40.45,33.74-23.35,56.4-54.64,67.13-93.76,4.14-15.07,7.12-32.42,3.84-47.23-13.66-61.67-3.78-120.09,22.83-175.51C269.59,128.15,362.91,42.4,500.03,5.74ZM205.03,311.06c-8.56,34.65-10.9,69.36-3.6,104.73,4.78,23.16,1.47,46.21-5.63,68.73-14.94,47.33-44.9,82.42-87.1,107.68-10.95,6.55-22.1,12.4-26.08,26.52-2.91,10.32-10.47,13.48-20.58,7.28-3.86-2.37-8.31-3.76-12.54-5.62-6.21,5.62-11.99,10.04-16.78,15.34-22.96,25.39-23.16,51.73-.94,77.66,26.74,31.21,66.25,30.3,90.24-2.83,7.91-10.93,14.59-23.06,20.02-35.44,16.61-37.89,40-71.47,67.47-101.72,30.25-33.3,65.36-59.02,114.49-55.46,50.92,3.69,98.56-9.16,143.55-32.2,86.98-44.54,152.23-111.03,196.15-198.06,21.92-43.44,34.73-89.45,32.01-138.91-4.14-75.18-51.6-125.31-126.71-132.26-39.9-3.69-78.56,3.61-114.96,19.57-122.49,53.73-206.7,142.96-248.99,274.99Zm302.14,175.84c-13.27-2.61-18.97,5.33-25.38,18.56,12.71-2.54,20.84-5.84,25.38-18.56Zm79.37-56.48c9.02-4.77,16.43-10.59,11.67-24.43-4.52,7.29-9.04,14.58-11.67,24.43Zm-41.57,25c-6.19,4.55-11.68,9.49-9.95,18.88,6.61-4.1,11.67-9.39,16.27-15.04,.35-.43-2.54-3.48-6.32-3.84ZM105.3,757.68c6.51-2.94,12.19-6.36,8.83-19-6.83,6.15-11.64,10.48-16.45,14.81,1.57,1.69,3.13,3.39,7.62,4.19ZM624.14,383.74c.45,.66,.77,1.55,1.39,1.91,.48,.28,1.54,.13,2.02-.24,6.58-5.19,12.37-10.81,11.44-22.52-3.81,3.07-5.96,4.21-7.24,5.98-2.79,3.84-5.13,7.99-7.6,14.88Zm-375.53,182.2q14.07-2.86,13.98-20.25c-6.27,7.6-10.28,12.45-13.98,20.25Zm-19.6,20.26c-.21-2.55-.42-5.09-.8-9.69-8.04,6.24-14.1,10.5-11.83,22.6,5.14-4.57,8.37-7.45,12.62-12.91Zm140.01-43.93l9.51-4.25c-8.22-3.96-15.93-7.64-22.77,2.88,4.36,.7,7.26,1.16,13.26,1.37Zm-77.35-7.59c-7.92,1.96-12.5,5.64-8.18,15.09,8.84-2.14,16.95-3.43,8.18-15.09Zm25.33,4.84c6.64,3.47,12.8,4.13,22.3-6.16-10.72,1.42-16.45,2.18-22.3,6.16Zm84.58-3.14c7.62-.15,14.97-.72,17.67-11.76-9.74-.24-17.26-.47-17.67,11.76Zm41.62-21.3c-.95,2.4-1.91,4.8-2.86,7.19,1.18,1.08,2.36,2.17,3.55,3.25,5.55-3.43,11.11-6.85,16.66-10.28-.76-1.64-1.53-3.27-2.29-4.91-4.03,.91-8.06,1.82-15.06,4.75Zm-275.28,153.89c2.27-4.55,4.54-9.11,6.81-13.66-1.92-.65-3.84-1.31-5.76-1.96-1.17,5.3-2.33,10.59-1.05,15.62Zm-24.96,40.86c-1.53,4.15-3.07,8.3-4.6,12.45,4.32-1.62,6.73-3.94,7.43-6.69,.57-2.26-.9-5.03-2.83-5.75Zm-70.29,49.49c1.52-1.95,3.05-3.91,4.57-5.86-4.2-.98-8.4-1.95-18.01-4.19,6.34,5.72,8.43,7.6,13.45,10.05ZM668.48,325.02c1.65-4.29,3.29-8.58,4.94-12.86q-8.48,8.77-4.94,12.86Z"/><path class="b" d="M385.22,112.89c35.31-27.02,71.42-49.01,112.65-61.68,24.8-7.62,49.97-11.38,75.91-8.68,46.88,4.88,79.74,35.69,87.44,82.15,3.99,24.06,2.49,47.89-3.22,71.57-9.32,38.64-25.91,74.01-47.71,107.05-42.73,64.78-97.32,116.82-166.18,153.16-32.22,17-66.29,28.53-103.16,29.37-70.85,1.62-114.31-43.73-110.58-114.81,1.62-30.81,9.12-60.12,21.44-88.29,29.56-67.57,75.14-122.61,133.39-169.85Zm94.47,304.02c57.62-41.24,104.13-92.37,137.09-155.29,19.18-36.61,32.24-75.04,30.98-117.16-.72-24.04-7.63-45.65-24.51-63.47-9.76-10.3-20.36-15.25-34.1-7.22-4.06,2.37-9.05,5.28-13.3,4.85-23.55-2.34-42.36,8.97-61.32,19.98-9.38,5.44-17.75,6.14-26.02-2.17-13.97-14.05-29.66-13.83-45.74-4.08-82.61,50.1-145.46,117.87-180.81,208.47-9.15,23.44-14.96,49.55-15.74,74.63-2.05,65.67,41.21,102.58,106.33,95.05,14.33-1.66,23.45-7.69,28.58-21.46,9.41-25.27,16.17-28.44,40.94-17.8,14.73,6.33,27.72,6.21,40.69-3.14,4.54-3.28,9.36-6.18,16.92-11.2ZM570.72,57.78c-28.86-2.38-56.57,1.45-84.75,15.2,6.16,5.89,10.97,10.49,12.89,12.33,26.96-9.34,50.83-17.62,71.86-27.53Zm-162.88,383.21c-12.5-.09-12.1,8.15-12.58,19.68,9.62-4.22,16.78-7.35,26.72-11.71-5.95-3.93-8.42-5.56-14.14-7.97Z"/><path class="b" d="M241.99,516.02c14.37-7.93,27.38-14.97,43.51-7.33-3.52,14.83-15.92,8.91-23.37,12.6-7.58,3.74-15.26,7.27-28.5,13.55,3.7-9.37,5.36-13.57,8.37-18.82Z"/><path class="b" d="M84.67,706.35c6.48-.37,11.18-.37,18.59-.37-16.19,18.34-30.62,19.87-48.04,7.45,7.15-11.3,18.92-3.29,29.45-7.08Z"/><path class="b" d="M561.22,222.14q25.28-8.5,39.85-.99c-7.88,4.11-13.47,7.81-19.59,10.11-135.84,51.24-273.52,95.46-293.05,93.3,2.94-4.28,4.55-8.9,7.76-10.77,5.44-3.18,11.86-4.7,17.92-6.78,81.79-28.11,163.58-56.19,247.11-84.87Z"/><path class="b" d="M476.72,209.32c16.21-3.2,29.76-13.91,45.03-8.57l1.86,5.75c-4.94,2.96-9.56,6.76-14.87,8.74-64.86,24.31-134.4,43.32-151.1,41.33-1.93-11.66,7.87-12.1,14.58-14.26,34.15-11.03,68.45-21.61,104.49-32.99Z"/><path class="b" d="M371.32,336.13c23.74-9.75,46.78-18.64,70.3-25.95,26.72-8.29,53.88-15.2,80.87-22.62,6.64-1.83,13.88-5.24,19.11,6.64-5.68,2.8-10.71,6.27-16.28,7.88-46.11,13.28-92.31,26.27-138.53,39.19-5.7,1.59-12.53,5.93-15.47-5.13Z"/><path class="b" d="M376.63,445.1c-4.4,1.68-8.11,1.83-11.81,1.98,2.04-4.34,4.07-8.68,6.11-13.02,2.13,3.17,4.26,6.34,5.7,11.05Z"/><path class="b" d="M527.44,99.51c3.14,2.31,4.85,5.07,6.57,7.83-2.86,.66-5.71,1.32-8.57,1.98,.19-3.12,.38-6.24,2-9.81Z"/></svg>