<?xml version="1.0" encoding="UTF-8"?><svg id="a" xmlns="http://www.w3.org/2000/svg" viewBox="0 0 1077 853.23"><defs><style>.b{fill:#ddd;}</style></defs><path class="b" d="M860.08,225.7c16.21,27.78,15.19,53.92,8.79,82.66-16.24,72.88-30.14,146.31-43.6,219.76-4.06,22.18-3.62,45.19-5.4,70.09,10.53,1.13,18.43,2.75,26.31,2.68,36.35-.31,72.77,.14,109.02-2.07,32.77-2,58,10.03,80.61,32.59,38.27,38.19,51.71,89.48,32.49,136.94-20.84,51.43-60.78,77.25-115.39,80.98-14.47,.99-29.07-.06-43.62,.04-192.15,1.25-384.29,2.5-576.44,3.85-61.53,.43-110.24-21.16-133.43-81.69-12.54-32.73-21.58-66.88-30.75-100.78-4.44-16.43,2.18-30.27,16.47-40.52,14.28-10.23,27.9-21.39,45.53-35.02-13.81-8.32-24.37-16.44-36.25-21.44-19.71-8.3-25.94-22.34-22.4-42.21,7.63-42.9,14.58-85.94,23.19-128.65,8.81-43.73,19.32-87.11,28.95-130.68,.88-3.97,.75-8.15,1.45-16.47-12.06,0-23.14,.35-34.19-.07-28.98-1.09-58.27-.2-86.84-4.27C45.4,243,1.08,189.79,.02,129.51-1.02,70.21,43.35,16.22,102.38,5.44c9.14-1.67,18.56-2.53,27.86-2.57C342.12,1.94,554.01,1.55,765.89,0c35.58-.26,65.06,10.38,89.8,35.23,14.99,15.05,14.38,21.01-2.84,34.39-6.41,4.98-12.85,9.93-20.03,15.48,3.98,2.82,6.23,5.04,8.93,6.24,46.19,20.35,48.42,24.57,47.88,74.64-.19,18.02-5.07,32.18-20.1,42.95-4.52,3.24-6.8,9.6-9.44,16.77ZM271.53,754.23c-39.59-70.78,9.96-152.45,92.1-152.43,135.05,.04,270.1-.32,405.16-.61,9.17-.02,18.34-.84,28.9-1.35,2.99-31.53,3.73-61.78,9.07-91.19,12.41-68.4,26.07-136.62,41.28-204.45,5.46-24.37,7.98-46.53-5.8-68.67-8.99-14.46-6.04-25.78,7.84-37.49,35.46-29.93,28.23-71.6-14.28-88.73-13.49-5.44-27.15-10.25-32.74-28.48,12.46-10.29,24.81-20.49,37.68-31.12-19.82-22.64-43.52-29.63-70.82-29.16-101.75,1.78-203.51,3.46-305.27,4.5-77.91,.8-155.84,.52-233.76,.87-7.72,.04-15.44,1.19-29.16,2.31,48.41,43.77,55.57,96.45,53.63,151.63-.8,22.78-1.93,45.87-6.32,68.14-13.25,67.21-28.65,133.98-42.23,201.13-6.73,33.27-11.31,66.98-16.45,97.98,22.07,20.23,50.62,24.05,66.9,49.03-6.46,6.37-11.72,12.43-17.86,17.43-12.08,9.84-25.57,18.13-36.62,28.95-5.86,5.74-11.34,15.62-10.97,23.35,2.46,51.27,17.99,98.4,54.9,135.28,49.61,49.55,131.41,35.77,163.69-26.37,3.49-6.73,4.72-14.63,7.04-22.15-21.36-6.93-36.22-1.15-51.92,9.64-32.42,22.29-59.97,19.98-93.99-8.05Zm162.31,77.9c173.21-1.7,346.42-3.19,519.63-5.21,58.71-.69,98.03-38.9,100.87-96.33,2.93-59.09-33.23-102.15-91.96-108.28-20.58-2.15-41.42-3.03-62.12-2.77-88.16,1.15-176.3,3.34-264.46,4.38-70.58,.83-141.17,.49-211.75,.87-7.64,.04-15.28,1.34-27.05,2.45,27.98,31.89,45.54,62.51,45.32,103.07-.22,40.77-20.71,69.63-49.97,101.85,16.02,0,26,0,41.5,0ZM36.06,75.51c-23.73,37.24-18.12,95.9,20.13,130.63,24.21,21.98,49.32,30.2,72.93,19.95,24.96-10.84,40.13-38.1,39.27-74.62-22.39,0-44.97,.86-67.46-.24-23.32-1.14-31.82-15.93-20.74-35.47,3.88-6.85,10.08-14.59,16.96-17.07,15.22-5.47,31.41-9.78,47.47-11.02,23.2-1.8,46.64-.46,73.57-.46-4.1-9.36-5.39-14.24-8.08-18.17C167.35,6.57,73.74,13.54,36.06,75.51ZM314.92,704.28c33.56-.67,67.33,2.56,100.18-1.08,1.91-14.12-2.2-20.93-12.35-20.96-37.4-.12-74.81,.08-112.19,1.15-10.8,.31-13.6,7.84-8.17,19.32,8.43,.48,17.61,1,32.54,1.57Zm.22,52.48c23.09,.52,40.54-8.99,56.95-30.8-32.68-1.99-60.34-4.43-89.23,1.11,3.36,17.82,14.55,24.26,32.28,29.69ZM122.58,131.21c12.47-1.79,26.41,4.55,38.14-5.69-23.48-24.6-41.82-23.44-58.5,4.05,5.63,.59,10.53,1.11,20.37,1.64Zm106.17-13.73c-12.13-18.27-29.32-6.52-44.8-9.11,7.03,26.45,20.97,30.33,44.8,9.11Zm-10.27,57.08c8.49-.38,18.16-1.22,15.58-12.68-1.03-4.58-8.87-9.81-14.28-10.71-8.48-1.41-17.54,.61-25.32,1.11-6.66,21.63,5.08,23.05,24.02,22.29Zm125.74,488.28c15.39-1.23,31.4,2.55,51.72-4.67-39.31-6.24-77.22-5.17-96.39,1.65,1.75,.9,3.47,2.53,5.25,2.58,11.29,.35,22.6,.35,39.43,.44ZM221.31,233.67c2.24-1.95,4.48-3.89,8.41-7.31-36.41-4.57-44.71-3.88-68.98,7.65,22.84,0,39.12,0,60.58-.34Zm-8.94-31.75c5.73-.62,11.47-1.23,17.2-1.85l-.19-3.63h-38.78c-.06,1.24-.12,2.48-.18,3.73,5.74,.58,11.49,1.17,21.95,1.75Z"/><path class="b" d="M341.15,229.56c-19.69,14.11-24.82,31.34-15.82,47.78,6.81,12.44,18.59,18.7,31.23,13.22,10.68-4.63,22.13-12.82,27.84-22.59,20.12-34.4,23.57-72.52,18.26-111.49-.64-4.73-4.59-9-8.51-16.29-10.36,5.8-19.58,11.7-29.39,16.3-23.06,10.82-47.99-.98-53.87-24.98-2.5-10.2-.81-13.2,14.61-23.82,1.45,5.18,2.62,9.64,3.95,14.05,5.84,19.4,14.49,23.26,31.6,14.1,.91-.49,1.65-1.27,2.55-1.79,36.49-21.36,55.47-12.41,60.31,29.36,4.14,35.69-.61,70.47-14.83,103.59-3.64,8.47-8.45,16.81-14.32,23.89-19.31,23.29-49.88,29.01-72.56,14.43-20.67-13.28-28.84-48.24-17.05-72.96,12.44-26.08,47.7-33.42,64.33-12.3,4.93,6.26,7.51,17.69,5.51,25.26-2.72,10.32-11.9,16.76-22.3,12.14-12.3-8.05,11.66-24.14-11.53-27.89Z"/><path class="b" d="M498.54,424.74c84.9-.2,166.86-.38,248.81-.17,10.58,.03,22.94-3.4,30.18,8.49-3.02,14.16-13.72,11.64-22.39,11.77-25.93,.37-51.87,.09-77.8,.21-61.2,.29-122.4,.8-183.6,.89-10.77,.02-21.54-1.56-34.99-2.61,7.38-24.38,24.79-15.28,39.79-18.58Z"/><path class="b" d="M565.59,500.81c19.68-.07,36.32-.79,52.87,.16,5.8,.34,11.36,4.79,23.98,10.52-13.53,5.11-19.64,9.42-25.76,9.43-89.26,.08-178.52-.38-267.78-.92-3.92-.02-7.83-2.08-17.38-4.78,7.35-6.28,11.2-11.88,16.26-13.34,6.73-1.95,14.39-.78,21.65-.79,64.36-.11,128.72-.18,196.16-.28Z"/><path class="b" d="M683.3,376.56c-78.17-1.54-153.36-3.05-228.54-4.97-1.22-.03-2.31-4.94-4.56-10.09,7.34-2.29,13.56-5.52,20-6.03,67.86-5.42,235.82-.9,257.23,7.15-8.34,21.87-27.49,10.45-44.12,13.93Z"/><path class="b" d="M694.5,183.25c-71.46,.01-140.04,.04-208.61-.39-10.09-.06-23.13,3.78-27.74-14.58,28.91-11.52,57.87-4.27,85.92-5.55,27.99-1.28,56.09-.35,84.14-.11,28.7,.24,57.4,.82,85.35,1.23,3.76,18.06-7.34,17.46-19.06,19.4Z"/><path class="b" d="M678.17,245.41c-24.87,0-46.66,.54-68.39-.34-6.8-.27-13.44-4.38-20.15-6.73,.16-2.69,.32-5.39,.48-8.08,7.13-2.04,14.16-5.45,21.39-5.92,79.82-5.22,177.65-.61,196.49,9.23-2.07,12.68-12.08,11.68-20.99,11.72-35.24,.17-70.48,.1-108.83,.11Z"/><path class="b" d="M359.7,424.46c24.21,2.69,47.38-6.25,73.17,11.49-12.05,4.45-18.08,8.49-24.21,8.64-37.11,.92-74.25,.99-111.37,1.22-4.09,.03-8.58,.2-12.16-1.36-3.33-1.46-8.45-6.04-7.92-7.67,1.3-4.03,5.04-9.72,8.43-10.18,11.16-1.52,22.6-1.04,33.92-1.3,12.37-.29,24.75-.56,40.14-.84Z"/><path class="b" d="M604.25,309.5c-15.98-.77-28.99-1.55-48.29-2.71,7.92-9.04,11.28-16.29,14.81-16.38,35.1-.88,70.23-.78,105.35-.38,4.62,.05,9.21,3.33,11.99,7.83-28.2,17.9-55.35,7.75-83.87,11.63Z"/><path class="b" d="M341.51,376.35c-19.03-2.48-37.25,5.64-51.65-6.89,4.27-15.34,14.32-14.03,23.29-14.32,70.55-2.28,74.38-1.79,90.74,10.67q-12.77,10.95-62.38,10.54Z"/><path class="b" d="M539.43,224.83c12.39,1.52,24.13-1.07,28.32,17.25-38.71,7.81-75.3,4.91-117.73-.02q17.79-17.36,89.41-17.23Z"/><path class="b" d="M679.6,521.04c-8.76-2.73-14.59-5.52-20.43-8.31,4.87-3.96,9.6-11.13,14.63-11.35,25.58-1.13,51.25-.87,76.86-.04,4.86,.16,9.56,5.08,20.37,11.24-32.75,14.31-61.32,5.64-91.43,8.46Z"/><path class="b" d="M472.36,310.88c-12.89-1.48-23.32-2.98-33.76-4.48-.43-2.47-.86-4.94-1.28-7.41,5.23-3.2,10.57-9.29,15.67-9.09,20.25,.78,42.17-7.26,62.47,8.82-12.05,14.55-27.4,9.91-43.1,12.16Z"/><path class="b" d="M799.51,183.62c-18.28,.25-33.84,.47-49.39,.17-8.38-.16-17.03-.82-17.65-16.59,23.88-8.86,49.66-7.41,73.66-1.56,13.29,3.23,7.95,13.79-6.63,17.98Z"/><path class="b" d="M753.19,288.33c17.19,3.44,35.53-8.01,49.15,14.46-28.52,9.44-54.11,8.26-82.28,2.63,5.28-20.55,19.32-15.8,33.13-17.09Z"/><path class="b" d="M272.02,502.26c16.39,1.73,33.47-9.08,45.33,10.03-15.79,14.21-32.77,9.07-49.2,5.22-.63-.15,.91-9.57,3.88-15.25Z"/><path class="b" d="M778.21,355.59c13.28,3.08,18.12,10.4,7.86,16.9-10.48,6.65-23.32,6.25-34.65-10.7,9.95-2.64,17.08-4.53,26.79-6.2Z"/></svg>