<?xml version="1.0" encoding="UTF-8"?><svg id="a" xmlns="http://www.w3.org/2000/svg" viewBox="0 0 636.42 716.64"><defs><style>.b{fill:#ddd;}</style></defs><path class="b" d="M94.78,711.6c-58.41-24.9-86.54-70.44-93.12-129.15-7.55-67.26,10.49-127.34,58.84-176.71,44.38-45.31,88.69-90.7,132.86-136.22,6.69-6.89,12.46-14.68,18.42-21.77-21.44-26.72-20.27-32.08,12.76-52.99-10.08-17.09-19.75-34.63-30.54-51.47-11.55-18.02-21.88-36.61-23.88-58.12-1.41-15.17-2.13-30.99,.56-45.85,5.74-31.69,36.29-47.16,62.41-32.2,19.16,10.97,39.49,14.21,59.95,.86,5.17-3.37,12.22-4.44,18.58-5.33,33.59-4.71,45.5,3.7,52.68,38.99,24.48-11.75,48.66-22.66,72.18-34.85,24.85-12.89,42-7.67,52.9,18.11,13.54,32.02,8.07,62.48-10.23,90.63-12.39,19.07-26.94,36.73-40.38,55.13-5.68,7.77-10.97,15.83-16.07,23.22,19.7,27.97,19.64,29.31-2.4,51.36,6.77,17.15,18.9,31.12,33.04,43.22,14.2,12.15,29.2,23.41,44.21,34.59,39.56,29.47,72.61,65.08,100.81,105.41,34.54,49.39,44.91,103.63,33.79,162.55-8.73,46.24-36.32,81.4-68.29,113.07-8.02,7.95-23.69,11.24-35.91,11.39-86.21,1.01-172.44,.59-258.66,.73-47.14,.08-94.28,.66-141.41,.38-10.41-.06-20.8-2.86-33.1-4.96Zm45.53-58.76c-2.2-19.32-5.08-38.59-6.32-57.97-.68-10.74,2.02-21.59,14.19-25.7,9.06-3.06,18.78,3.55,24.86,18.73,4.79,11.95,8.32,24.7,10.26,37.43,3.63,23.87,5.69,47.97,8.32,71.28,2.64,1.19,4.06,2.39,5.49,2.4,63.41,.39,126.81,.55,190.22,1.08,10.93,.09,18.27-4.63,24.61-13.01,3.93-5.2,5.64-14.47,17.74-11.2-1.07,7.25-2.15,14.56-3.53,23.85,15.18-10.9,17.95-26.12,21.79-40.79,1.84-7.03,2.9-14.51,6.1-20.89,4.84-9.66,13.91-10.83,23.07-6.94,8.92,3.79,11.85,11.94,8.14,20.27-4.92,11.05-11.69,21.28-17.79,31.8-2.52,4.34-5.35,8.49-9.72,15.37,26.02,.87,48.7,3.03,71.18,1.76,10.49-.59,23.36-5.18,30.4-12.52,28.36-29.59,51.81-62.33,58.72-104.63,8.85-54.17-2.11-103.27-33.37-148.22-29.56-42.5-65.12-79.03-107.12-109.23-29.31-21.08-55.83-44.7-73.28-77.03-.29-.53-2.31-.14-3.49-.17-3.7,7.95,7.3,19.39-7.35,26.23-4.25-9.31-8.1-17.75-12.22-26.78l-76.72,1.8c-3.67,7.3-7.38,14.68-13.22,26.3-3.76-11.87-5.97-18.83-8.69-27.42-12.43,8.52-16.9,20.16-18.21,31.76-1.99,17.59-1.5,35.49-1.5,53.26,0,6.12,4.15,13.09-8.22,16.29-17.62-33.68-4.79-66.8,2.87-99.93-16.74-5.22-28.96-2.07-37.75,13.42-3.91,6.89-10.52,12.32-16.21,18.12-43.82,44.69-87.36,89.66-131.7,133.83-30.66,30.54-47.82,67.25-54.18,109.48-8.76,58.1,3.09,110.26,46.46,152.24,19.18,18.57,41.81,29.41,69.81,24.17-.62-18.8-23.71-29.34-12.66-53.64,11.44,17.47,20.99,32.04,30.53,46.61,1.07-.62,2.14-1.24,3.21-1.86-4.62-11.87-9.23-23.75-14.74-39.53ZM353.59,94.15c-3.34,1.63-6.68,3.27-10.02,4.9-1.57-4.12-4.9-8.45-4.41-12.31,2.01-16.05,6.46-31.86,7.56-47.93,1.18-17.3-3.97-21.61-21.23-22.24-18.87-.69-33.64,9.25-48.82,18.06,1.02,8.85,1.9,16.49,2.89,25.09-23.02,1.48-10.47-25.6-26.94-29.99-2.33,7.52-4.3,13.87-6.28,20.22-1.58,.39-3.16,.79-4.74,1.18-2.24-5.18-5.39-10.15-6.56-15.56-3.56-16.54-13.69-22.18-29.18-16.11-12.68,4.97-19.44,14.05-21.25,27.28-3.76,27.54,1.25,53.2,14.93,77.54,13.08,23.26,24.95,47.21,37.98,70.51,1.5,2.68,7.04,3.11,11.04,4.71,2.98-13.88-12.8-25.65,2.3-39.68,3.3,6.97,6.36,12.24,8.38,17.88,5.64,15.76,15.72,22.55,33.19,22.05,18.2-.51,35.5-.25,47.47-17.01,.51-.71,3.02,.01,5.91,.11,1.45,4.32,3,8.96,4.83,14.39,25.55-12.26,28.97-40.44,46.7-61.63,9.5,26.46-11.97,39.18-15.05,58.88,11.33,.31,22.27,4.84,30.31-7.57,13.19-20.35,26.86-40.4,40.18-60.68,7.13-10.85,15.28-21.28,20.65-32.97,9.93-21.64,10.93-44.15-.28-65.91-6.46-12.54-13.45-14.79-25.82-8.34-9.3,4.85-17.89,11.07-25.59,15.91-5.69,9.24,1.81,23.65-14.87,26.84-.95-3.57-1.82-6.47-2.48-9.41-.66-2.95-1.1-5.94-1.65-8.96q-24.7,5.39-34.5,24.07c-4.16,7.91-8.42,15.77-14.66,26.67ZM173.95,669.74q-9.29-68.57-22.57-79.66c-7.2,33.96,2.71,76.1,22.27,93.07,.17-3.59,.32-6.78,.3-13.41ZM246.24,224.31c3.42,3.35,6.84,6.7,10.26,10.04,3.3-7.08,4.38-13.45,1.69-16.73-4.6-5.62-10.72-6.27-11.95,6.69Zm158.4-4.37c3.09,6.82,7.67,10.79,14.35,4.8,1.72-1.54,1.79-8.17,.12-9.65-4.89-4.31-11.47-11.28-14.47,4.85Zm-190.2-.55c-.35,13.91,7.85,11.1,16.58,9.61-.51-10.51-2.46-17.24-16.58-9.61Zm169.78-5.76c-10.12-3.01-8.05,4.08-7.28,9.25,1.21,8.15,5.55,10.68,14.21,5.48-1.5-4.21-2.99-8.37-6.93-14.73Zm-45.6,8.2c-3.02-2.61-6.05-5.22-9.07-7.83-1.51,.96-3.01,1.92-4.52,2.88,2,5.04,4,10.09,6,15.13,2.67-2.21,5.33-4.42,7.59-10.18Zm-48.7,7.83c-.26-2.4,.33-5.51-.96-7.04-2.63-3.13-6.27-5.4-9.5-8.03-.99,4.07-3.84,9-2.46,11.95,1.39,2.97,7,3.96,12.91,3.11Zm21.11-11.16c-2.28-.24-4.57-.48-6.85-.72,1.12,4.38,2.24,8.75,3.37,13.13,1.05-.18,2.1-.37,3.15-.55,.33-2.93,.66-5.86,.34-11.85Zm42.9-1.15c.99,4.62,1.98,9.25,3.9,18.22,6.67-11.65,6.1-17.1-3.9-18.22Z"/><path class="b" d="M433.23,563.99c5.29,10.78,17.46,17.94,9.03,32.49-3.75-2.19-7.02-3.12-8.77-5.29-13.91-17.28-26.49-35.76-41.66-51.83-7.87-8.34-20.16-12.51-31.9-19.42,12.61-15.89,24.7,1.08,38.14-.45,9.13-44.15-8.57-81.55-28-117.68-12.12-3.21-16.15,18.28-29.19,5.55,13.03-20.83,26.02-41.62,39.74-63.57,14.1,11.46-1.37,21.68,1.55,33.56,26.78,2.18,49.94-7.45,73.05-23.5-.92-3.43-2.25-6.88-2.66-10.43-.33-2.85,.44-5.83,.8-9.61,32.64,5.85,44.86,33.41,62.43,53.84,18,20.93,32.45,44.67,37.98,72.54,7.54-.81,14.09-1.51,24.11-2.57-9.61,16.58-17.47,30.16-26.49,45.74-3.29-1.15-8.06-2.82-13.4-4.68-27.75,23.47-60.69,38.9-95.07,51.72-5.43,2.03-14.36,1.65-9.68,13.61Zm8.55-146.38c29.62,8.22,59.25,16.43,88.95,24.67-17.46-27.35-103.11-51.36-141.2-39.43,.69,8.77,5.7,12.28,14.16,12.51,11.3,.31,22.6,1.02,38.08,2.25Zm84.98,58.57l10.3-2.37c-1.84-3.13-2.92-7.73-5.65-9.17-28.69-15.13-57.9-29.17-90.75-32.65-10.94-1.16-22-1.11-35.69-1.74,41.68,15.55,80,29.85,121.79,45.92Zm-89.88-92.52c22.72,6.78,45.44,13.55,68.16,20.33-2.89-10.1-8.43-21.49-14.15-21.58-17.29-.26-34.57-11.02-54.02,1.24Zm23.2,80.19c-15.76-4.18-30.93-11.76-48.11-8.59,11.55,5.05,23.69,8.01,35.4,12.17,12.17,4.32,23.7,10.46,35.94,14.55,10.93,3.65,19.88,15.07,34.93,5.94-18.2-7.62-36.4-15.24-58.16-24.07Zm6.24,61.1c.9-2.08,3.14-5.33,2.51-6.05-9.16-10.38-35.48-18.93-51.63-16.91,10.41,8.09,20.03,16.54,30.69,23.34,3.85,2.46,10.22,.97,18.43-.38Zm-2.28-35.6q-34.82-14.49-50.01-9.28c15.38,5.23,28.68,10.55,42.43,14.21,13.22,3.51,22,18.35,39.76,11.39-9.66-4.9-19.32-9.79-32.18-16.32Zm-34.93,49.94l4.71-4.83c-4.95-4.41-9.9-8.82-16.86-15.03-3.64,13.22-9.69,23.6,12.16,19.86Z"/><path class="b" d="M552.43,577.08c20.26-17.01,25.29-40.13,31.25-68.62,5.89,8.81,10.49,12.61,9.94,15.39-2.5,12.57-4.44,25.92-10.32,37.01-11.63,21.93-30.37,37.87-51.7,50.31-6.27,3.66-14.19,9.32-20.65-1.84,13.78-10.61,27.02-20.81,41.48-32.26Z"/><path class="b" d="M122.01,470.7c3.97,16.45,7.92,30.78,12.36,46.89-2.77-.08-8.5,1.45-10.56-.64-4.95-5.03-9.57-11.27-11.84-17.87-7.63-22.11-7.68-44.87-.91-67.13,2.03-6.68,8.24-12.1,13.56-19.53,10.9,13.46-1.58,20.66-1.58,29.51,0,8.88-.67,17.77-1.03,28.76Z"/><path class="b" d="M145.56,454.74c-3.41,7.28-5.95,13.15-8.87,18.83-.61,1.18-2.62,1.63-3.98,2.42-8.74-11.28-5.61-27.47,6.9-31.52,6.61-2.14,7.85,3.22,5.94,10.28Z"/><path class="b" d="M531.91,570.86c-1.55-14.31,9.11-19.14,16.62-27.78,6.25,17.54,4.6,20.31-16.62,27.78Z"/></svg>