<svg id="Layer_1" data-name="Layer 1" xmlns="http://www.w3.org/2000/svg" viewBox="0 0 792.58 611.67"><defs><style>.cls-1{fill:#DDD;}</style></defs><path class="cls-1" d="M182.29,388.94c5.36,0,13.65-.59,16.18-.59,2.73,0,3.22.39,3.51,1.76a2.34,2.34,0,0,1,.1.78c0,1.46-.78,2.92-1,4.39s-1.76,2.43-5.07,2.43h-2c-.39,0-.78-.09-1.07-.09-3.81,0-4.78,1.95-5.27,5.55-.68,4.1-2,13.75-2.53,18.82s-2.05,14.43-2.05,19.41v.68c0,4.29-1.86,6.34-5.66,6.34h-1.07c-3.8-.4-4.78-1.08-4.78-2.44a4.26,4.26,0,0,1,.2-1c.39-1.85.68-4.77,1.26-7.21s2.34-14.53,2.34-18.14,2-13.26,3.22-18.33a6.61,6.61,0,0,0,.2-1.27c0-1.85-1.47-2.34-3.32-2.34-1.56,0-3.12.3-4.87.3-3.42-.1-4.78-.3-4.78-3.42a7.16,7.16,0,0,1,.1-1.36c.29-3.71,1.36-4.39,3.41-4.39.49,0,1,.1,1.56.1h11.41Z"/><path class="cls-1" d="M221.49,387.77v.88c-.2,2.24-1.08,5.07-1.57,7.89s-1.36,10.63-1.75,13.36a3.56,3.56,0,0,1-.1.59,1.22,1.22,0,0,0,1.37,1.36,4.62,4.62,0,0,0,2.24-.68c1.17-.68,2.34-1.27,6-1.27h2c6.63.39,9.66,5.36,10.14,10a8.13,8.13,0,0,1,.1,1.56,67,67,0,0,1-1.07,9c-.49,3.41-.49,7.21-1.46,12.77-.78,4.68-2.15,4.78-4.39,4.78h-2.24c-2.64,0-3.81-.88-3.81-2.44a1.61,1.61,0,0,1,.1-.68c.39-2.15,1.17-5.17,1.46-8.29s1.56-9.17,2.05-12.68v-1.56c0-3.31-2.53-4.68-5.85-4.68-5.36,0-8.48,6.15-9.17,8.88a69.76,69.76,0,0,0-1.65,15c0,5.75-1.56,6.63-4.78,6.63-.78,0-1.66-.1-2.73-.19-2.34,0-3-1.17-3-2.63,0-1.76.87-3.81,1.17-5.17.87-5.07,2-13.17,2.53-16.68s2-14.52,2.44-17.94,1.07-13.35,1.46-17.06,1.07-2.93,5.27-3.41h2.14C220.41,385,221.49,385.52,221.49,387.77Z"/><path class="cls-1" d="M284.47,427.94c0,3.12-1.17,4-3.6,4h-.59c-1,0-1.95-.1-3.12-.1-2.73,0-6,.19-7.61.29h-.87c-2.15,0-5-.39-8-.39-3.41,0-3.7,1-3.7,3.12,0,3.12,5,5.75,9.16,6.24h.78c3.61,0,5.75-2.44,7.12-3.51a4,4,0,0,1,2.54-1,6.25,6.25,0,0,1,2.73.68c1.36.78,2.24,1.66,2.24,2.83a4.16,4.16,0,0,1-.78,2.05c-2.73,3.8-8.78,6.24-15.9,6.63h-.68a18.6,18.6,0,0,1-11.6-4.78c-2.54-2.25-4.78-8.09-4.78-15.51v-1.07c.29-7.9,5.36-12.19,7.9-14.23a17.88,17.88,0,0,1,11.6-3.9,17.25,17.25,0,0,1,12.78,5.55C283.5,418.38,284.47,424.62,284.47,427.94Zm-26.23-4.58c0,1.36,1.66,1.65,3,1.65,2,.2,7.31.3,10,.69a2.29,2.29,0,0,0,.78.09c2.24,0,3.41-1.46,3.41-2.63a6.23,6.23,0,0,0-1.95-4.09,12.18,12.18,0,0,0-7.6-2.44c-3.22,0-5.27,2.05-7.12,5A2.87,2.87,0,0,0,258.24,423.36Z"/><path class="cls-1" d="M351,393.42a3.76,3.76,0,0,1,1.86,3.12,6.12,6.12,0,0,1-2.05,4,5.82,5.82,0,0,1-4.1,1.85,2.72,2.72,0,0,1-2.44-1.26,11.56,11.56,0,0,0-8.38-3.9h-.39c-3.41,0-7.51,1.46-8,6.24a3.2,3.2,0,0,0-.09,1c0,2.73,1.36,4.58,4.19,6.14,2.44,1.37,5.65,2.64,8.38,4.1,8.2,4.29,9.46,8.09,10.24,14.33a23.74,23.74,0,0,1,.3,3.51,13.11,13.11,0,0,1-3.32,9.17c-3.41,4.78-10.34,7.6-16.38,7.6-8,0-14.43-4.68-18-10.23-1-1.57-1.46-2.54-1.46-3.22,0-1.47,1.95-1.56,3.9-3.42A4.36,4.36,0,0,1,318,431c1.26,0,2,1,2.63,2.24.88,2.05,6.14,5.86,9.07,6.34a6.19,6.19,0,0,0,1.36.1,8.75,8.75,0,0,0,4.49-1.56c1.36-.78,4.68-2.63,5.07-5.46,0-.29.1-.59.1-.88,0-3-2.25-5.95-4.49-7.51-2.54-1.65-9.75-4.77-13-7.6a16.12,16.12,0,0,1-5.07-12.29,39.34,39.34,0,0,1,.39-4.38c1.46-9,10.34-12.29,18.23-12.48h.59C344.83,387.48,348.15,391.77,351,393.42Z"/><path class="cls-1" d="M388.32,413.9a.89.89,0,0,0,.87.68c.88,0,1.66-1.27,2.05-2.44.39-1.56,2.73-1.26,5.66-1.56h.29c1.56,0,2.05,1.47,2.05,3.32a16.34,16.34,0,0,1-.49,3.8c-.68,2.93-1.66,9.26-2.34,13s-.68,8-1.07,12.58c-.3,3.7-2.15,4.19-3.71,4.19h-1.27c-1.65-.2-3.12-.49-3.9-1.95a1.26,1.26,0,0,0-1.17-.78,4.58,4.58,0,0,0-3,1.56c-1.07,1.17-3.12,2.15-7.21,2.34h-.59c-4.09,0-9.36-1.66-12.58-5.07-2.82-2.93-3.9-8.19-3.9-13.07,0-1.07.1-2,.1-3.12.59-5.55,3.61-9.65,6.92-12.67s5.37-4.58,11.41-4.78H377C382.76,409.9,387.24,412.34,388.32,413.9Zm-15.8,6.73c-2.53,1.65-4,5.07-4.68,8.58,0,.58-.1,1.17-.1,1.65,0,1.95.59,3.42,2.54,6.15,1.27,1.95,2.73,2.63,6.63,2.63h1.17c6.14-.2,8.77-6.83,9.26-9.56.1-1.07.29-1.95.29-2.82a8.31,8.31,0,0,0-1.17-4.2c-1.36-2.73-2.92-4.38-6.92-4.58h-1C375.54,418.48,374.76,419.16,372.52,420.63Z"/><path class="cls-1" d="M425.27,388a1.66,1.66,0,0,1-.1.69c-.39,2-.68,3.51-1.36,6.53s-1.27,9.36-1.46,11.6S419.71,423.26,419,426c-.58,2.53-2.24,13.16-2.24,16.57v.49c0,.49.1,1.07.1,1.56,0,2.05-.59,3.71-4.29,3.71a9.76,9.76,0,0,1-1.66-.1c-3.41-.29-4.29-1.37-4.29-2.73a15.51,15.51,0,0,1,1-3.8c.59-2.63,1.27-9.17,2.05-11.61s2.34-13.74,2.34-15,1.27-9.56,1.66-13.65,1.46-7.8,1.46-11c0-3,.68-4.68,4.19-4.68h1C424,386,425.27,386.5,425.27,388Z"/><path class="cls-1" d="M447.7,395.08c1.56,0,2.14,1,2.14,2.44a5.88,5.88,0,0,1-.1,1.27c-.58,3.12-1.85,8.77-1.85,9.94,0,1.95,1.56,2.44,2.93,2.44h.49c1.17,0,2,.19,2,2.05a9.11,9.11,0,0,1-.09,1.46c-.49,3.31-1.17,3.7-2.83,3.7h-.78c-2,0-3.71,2.05-4.2,7.71-.58,5.85-1.46,13.84-1.95,17.06s-.77,4.78-6,4.78c-3.51,0-4.68-.49-4.68-1.95a11,11,0,0,1,.78-2.93,53.57,53.57,0,0,0,2.05-12.28c0-2.54,1.17-6.93,1.26-9.46v-.49c0-1.56-.29-1.85-1.26-1.85-.29,0-.69.1-1.08.1H434c-1.37,0-2.15-.59-2.15-2.83v-1.37c.4-2.73,1.47-3,2.83-3H436c1.95,0,2.63-1.85,2.83-4a72.19,72.19,0,0,0,.78-8.58c0-2.63,1-3.51,2.43-3.51h.69C444.09,395.76,445.94,395.08,447.7,395.08Z"/><path class="cls-1" d="M497.43,391.86c-.3,2.05,0,3-1.08,6.83s-.39,6.82-1.46,9.75a1.88,1.88,0,0,0-.29.88c0,.48.39.58.78.58a6.59,6.59,0,0,0,3.41-1.85c1.46-1.46,5.27-5.85,7.8-8.58s5.56-6.24,7.8-8.87c1.56-1.66,2.83-2.05,5.17-2.05,1.17,0,2.63.1,4.48.1,2.25,0,3.12.78,3.12,1.75,0,1.46-1.65,3.32-2.72,4.29-1.76,1.56-4.2,2.73-6.73,6.05s-6.63,6.24-9.07,8.67-5.85,5.07-5.85,6.93c0,.09.1.19.1.29a11.43,11.43,0,0,0,3.41,5.07c1.46,1.17,3.41,3.41,6,7.31s7.12,9.36,9.36,13c1.57,2.44,3,3.8,3,4.49-.1,1.26-2.83,1-6.15,1.07h-1.07c-4.39,0-5.07-1.07-6.24-2.93a46.49,46.49,0,0,0-5-6.92c-1.46-1.46-2.34-3.71-3.12-5.36s-3.32-4.49-5.17-6.83c-1.17-1.56-1.95-2.44-2.73-2.44a2.55,2.55,0,0,0-1.46.59c-1.66,1.36-1.46,2.05-1.85,4.58a141.12,141.12,0,0,0-1.66,14.92c-.1,3.8-1,4.49-2.63,4.49-.88,0-1.86-.2-3-.2-3-.29-4.77.49-4.77-1.95a9.94,9.94,0,0,1,.48-2.93c1-4,2.05-10.62,3-15.21s1.46-11.7,2.14-16.38A140.82,140.82,0,0,0,487,393.91c0-4.68,1.86-5,5.85-5,3.61,0,4.59.58,4.59,2.24Z"/><path class="cls-1" d="M565.29,427.94c0,3.12-1.17,4-3.61,4h-.58c-1,0-2-.1-3.12-.1-2.73,0-6,.19-7.61.29h-.88c-2.14,0-5-.39-8-.39-3.41,0-3.71,1-3.71,3.12,0,3.12,5,5.75,9.17,6.24h.78c3.61,0,5.75-2.44,7.12-3.51a4,4,0,0,1,2.53-1,6.18,6.18,0,0,1,2.73.68c1.37.78,2.25,1.66,2.25,2.83a4.19,4.19,0,0,1-.79,2.05c-2.72,3.8-8.77,6.24-15.89,6.63H545a18.58,18.58,0,0,1-11.6-4.78c-2.54-2.25-4.78-8.09-4.78-15.51v-1.07c.29-7.9,5.36-12.19,7.9-14.23a17.88,17.88,0,0,1,11.6-3.9,17.22,17.22,0,0,1,12.77,5.55C564.32,418.38,565.29,424.62,565.29,427.94Zm-26.23-4.58c0,1.36,1.66,1.65,3,1.65,1.95.2,7.32.3,10,.69a2.29,2.29,0,0,0,.78.09c2.24,0,3.41-1.46,3.41-2.63a6.23,6.23,0,0,0-2-4.09,12.21,12.21,0,0,0-7.61-2.44c-3.21,0-5.26,2.05-7.11,5A2.87,2.87,0,0,0,539.06,423.36Z"/><path class="cls-1" d="M608.78,427.94c0,3.12-1.17,4-3.61,4h-.58c-1,0-2-.1-3.12-.1-2.73,0-6,.19-7.61.29H593c-2.14,0-5-.39-8-.39-3.41,0-3.71,1-3.71,3.12,0,3.12,5,5.75,9.17,6.24h.78c3.61,0,5.75-2.44,7.12-3.51a3.94,3.94,0,0,1,2.53-1,6.18,6.18,0,0,1,2.73.68c1.37.78,2.24,1.66,2.24,2.83a4.16,4.16,0,0,1-.78,2.05c-2.73,3.8-8.77,6.24-15.89,6.63h-.68A18.63,18.63,0,0,1,576.89,444c-2.53-2.25-4.77-8.09-4.77-15.51v-1.07c.29-7.9,5.36-12.19,7.89-14.23a17.93,17.93,0,0,1,11.61-3.9,17.22,17.22,0,0,1,12.77,5.55C607.8,418.38,608.78,424.62,608.78,427.94Zm-26.23-4.58c0,1.36,1.66,1.65,3,1.65,1.95.2,7.32.3,10,.69a2.29,2.29,0,0,0,.78.09c2.24,0,3.41-1.46,3.41-2.63a6.23,6.23,0,0,0-1.95-4.09,12.21,12.21,0,0,0-7.61-2.44c-3.22,0-5.26,2.05-7.12,5A2.91,2.91,0,0,0,582.55,423.36Z"/><path class="cls-1" d="M629.55,412.05c.1.78.49,1.17,1,1.17a9.78,9.78,0,0,0,2.93-1.27c1.66-.78,5.65-2.44,8.09-2.44H642c4.58.49,6.92,1.85,10.92,4.68,3.7,2.54,4.87,7.41,4.87,13.16v1.76c0,6.14-3.41,11.41-5.85,13.94a17,17,0,0,1-12.18,5.37c-.49,0-1,.09-1.47.09-4.38,0-5-1.17-8.19-3.61a5.51,5.51,0,0,0-2.92-1.36,2,2,0,0,0-1.85,2.15v.87a19,19,0,0,1-1.08,6.44,13.17,13.17,0,0,0-.48,4.68v2.05c0,1.26-.1,2.43-.1,3.7,0,.1-.1.39-.1.59-.39,3.41-.39,4-6.34,4-3.8,0-4.68-1-4.68-2.24a11,11,0,0,1,.78-3.22c.69-2.63,2-8.28,2.83-11.79s.68-8.58,1.66-11.7,1.66-11.61,1.85-14.14.68-7.51.88-10.73,2.14-4,4.78-4h.39C628.67,410.29,629.06,409.9,629.55,412.05Zm2.63,8.48c-2.92,1.36-3.12,4-3.9,7.8a10.16,10.16,0,0,0-.19,2.44c0,3,1.07,5.85,3,7.41a10.71,10.71,0,0,0,7.51,2.73c2.82,0,4.77-1.37,6.92-3.12s2.53-4.68,3.12-7.22a9.09,9.09,0,0,0,.39-2.83,10,10,0,0,0-1.17-4.87c-1.27-2.15-4.19-5.07-7.7-5.17h-.49C636.37,417.7,634.91,419.16,632.18,420.53Z"/><path class="cls-1" d="M471.34,343.25c-37.22-.32-73.8-.71-111-.24-35.41,4.35-40.92-26.23-38.77-54.33.44-16.1.86-31.53-.12-47.56,2.12-59.46-11.61-81.83,62.66-78.09,10.92-1.33,20.82.71,31.7.38,13.47-.2,26.2-1.13,39.64,0,42.64-3.92,48.23,16.58,46.78,53.91-1.53,24,.54,47.33-.84,71.34C504.22,313.43,502.17,340.58,471.34,343.25Zm-118.92-168c-26.67,1.25-16.26,32.55-18.95,50,0,21.3,1,42.16.28,63.41-1,41.43,1,42.71,42.45,42.53,23.93-.46,47.35.39,71.34-.65C488,333.34,491.82,329,490,288.68c-.64-24,.58-47.36-.24-71.34,3.7-39-3.5-45-42.19-42.07C415.68,174.91,384.24,174.35,352.42,175.25Z"/><path class="cls-1" d="M415.73,191c-80.65-4.4-87.89,117.34-8,122.56C488.43,318.17,496,197.53,415.73,191Zm-4,12.09c16.82-1,32.8,8.6,41.29,22.86,2.91,5.08,12.15,18.4,2.41,20.55-13.49-.23-26.23.33-39.72-.29-16,1.34-31.56-.06-47.68.56-7.13-.77-3.26-9.53-1.55-13.66C373.08,215,392.38,202.19,411.7,203.11Zm0,98.78c-16.82,1-32.79-8.6-41.28-22.86-2.92-5.07-12.16-18.4-2.42-20.55,13.5.23,26.23-.33,39.72.29,16-1.34,31.57.06,47.68-.56,7.13.77,3.27,9.53,1.55,13.66C450.32,290,431,302.81,411.7,301.89Z"/></svg>